<?xml version="1.0" encoding="UTF-8"?>
<!DOCTYPE svg  PUBLIC '-//W3C//DTD SVG 20010904//EN'  'http://www.w3.org/TR/2001/REC-SVG-20010904/DTD/svg10.dtd'>
<svg width="1e3pt" height="1e3pt" version="1.0" viewBox="0 0 1e3 1e3" xmlns="http://www.w3.org/2000/svg">
<g transform="translate(0 1e3) scale(.1 -.1)">
<path d="m4730 9880c0-19-7-20-190-20-162 0-190-2-190-15s-21-15-125-15c-118 0-125-1-125-20 0-18-7-20-70-20-56 0-70-3-70-15s-14-15-70-15c-63 0-70-2-70-20s-7-20-55-20c-42 0-55-3-55-15s-14-15-70-15-70-3-70-15-13-15-55-15c-48 0-55-2-55-20 0-16-7-20-35-20-24 0-35-5-35-15 0-11-12-15-50-15-43 0-50-3-50-20 0-18-7-20-55-20-42 0-55-3-55-15 0-10-11-15-35-15-28 0-35-4-35-20 0-18-7-20-55-20-42 0-55-3-55-15 0-11-12-15-50-15-43 0-50-3-50-20 0-16-7-20-35-20-24 0-35-5-35-15s-11-15-35-15c-28 0-35-4-35-20 0-13-7-20-20-20-11 0-20-7-20-15 0-10-11-15-35-15s-35-5-35-15-11-15-35-15c-28 0-35-4-35-20 0-13-7-20-20-20-11 0-20-7-20-15 0-10-11-15-35-15-28 0-35-4-35-20s-7-20-35-20c-24 0-35-5-35-15 0-8-7-15-15-15s-15-9-15-20c0-16-7-20-35-20-24 0-35-5-35-15 0-8-9-15-20-15-13 0-20-7-20-20 0-11-7-20-15-20s-15-7-15-15c0-10-11-15-35-15s-35-5-35-15c0-8-9-15-20-15-13 0-20-7-20-20 0-16-7-20-35-20-24 0-35-5-35-15 0-8-9-15-20-15-13 0-20-7-20-20 0-11-7-20-15-20s-15-7-15-15-9-15-20-15c-13 0-20-7-20-20 0-11-7-20-15-20s-15-7-15-15-9-15-20-15c-13 0-20-7-20-20 0-11-7-20-15-20s-15-7-15-15-9-15-20-15-20-7-20-15c0-10-11-15-35-15-28 0-35-4-35-20 0-11-7-20-15-20s-15-7-15-15-9-15-20-15c-13 0-20-7-20-20 0-11-7-20-15-20s-15-7-15-15-9-15-20-15c-13 0-20-7-20-20s-7-20-20-20c-11 0-20-7-20-15s-7-15-15-15-15-9-15-20c0-13-7-20-20-20-11 0-20-7-20-15 0-10-11-15-35-15-28 0-35-4-35-20 0-11-7-20-15-20s-15-7-15-15-9-15-20-15-20-7-20-15-7-15-15-15c-10 0-15-11-15-35 0-28-4-35-20-35-13 0-20-7-20-20 0-11-7-20-15-20s-15-7-15-15-9-15-20-15c-13 0-20-7-20-20 0-11-7-20-15-20s-15-7-15-15-9-15-20-15c-16 0-20-7-20-35 0-24-5-35-15-35-8 0-15-7-15-15s-9-15-20-15c-16 0-20-7-20-35s-4-35-20-35c-13 0-20-7-20-20 0-11-7-20-15-20s-15-7-15-15-9-15-20-15c-16 0-20-7-20-35 0-24-5-35-15-35-8 0-15-9-15-20 0-13-7-20-20-20-16 0-20-7-20-30 0-20-5-30-15-30s-15-11-15-35c0-28-4-35-20-35-13 0-20-7-20-20 0-11-7-20-15-20-10 0-15-11-15-35 0-28-4-35-20-35s-20-7-20-35c0-24-5-35-15-35s-15-11-15-35c0-28-4-35-20-35s-20-7-20-30c0-20-5-30-15-30s-15-11-15-35c0-28-4-35-20-35s-20-7-20-35c0-24-5-35-15-35-12 0-15-13-15-55 0-48-2-55-20-55-16 0-20-7-20-30s-4-30-20-30-20-7-20-35c0-24-5-35-15-35s-15-11-15-35c0-28-4-35-20-35-18 0-20-7-20-55 0-42-3-55-15-55-11 0-15-12-15-50 0-43-3-50-20-50s-20-7-20-50c0-38-4-50-15-50-12 0-15-14-15-70 0-63-2-70-20-70s-20-7-20-70c0-56-3-70-15-70s-15-14-15-70c0-63-2-70-20-70s-20-7-20-85c0-69-3-85-15-85s-15-14-15-70c0-63-2-70-20-70-19 0-20-7-20-120 0-100-2-120-15-120s-15-60-15-480 2-480 15-480 15-26 15-175c0-168 1-175 20-175 18 0 20-7 20-85 0-69 3-85 15-85s15-16 15-85c0-78 2-85 20-85s20-7 20-70c0-56 3-70 15-70s15-14 15-70c0-63 2-70 20-70 17 0 20-7 20-50 0-38 4-50 15-50 12 0 15-13 15-55 0-48 2-55 20-55 17 0 20-7 20-50 0-38 4-50 15-50 10 0 15-11 15-35 0-28 4-35 20-35s20-7 20-35c0-24 5-35 15-35 11 0 15-12 15-50 0-43 3-50 20-50 16 0 20-7 20-35s4-35 20-35 20-7 20-35c0-24 5-35 15-35s15-11 15-35c0-28 4-35 20-35s20-7 20-35c0-24 5-35 15-35s15-11 15-35c0-28 4-35 20-35s20-7 20-30c0-20 5-30 15-30s15-11 15-35c0-28 4-35 20-35 13 0 20-7 20-20 0-11 7-20 15-20 10 0 15-11 15-35 0-28 4-35 20-35 11 0 20-7 20-15s7-15 15-15c10 0 15-11 15-35 0-28 4-35 20-35s20-7 20-35c0-24 5-35 15-35 8 0 15-7 15-15s9-15 20-15c13 0 20-7 20-20 0-11 7-20 15-20 10 0 15-11 15-35 0-28 4-35 20-35 11 0 20-7 20-15s9-15 20-15c13 0 20-7 20-20 0-11 7-20 15-20 10 0 15-11 15-35 0-28 4-35 20-35 11 0 20-7 20-15s7-15 15-15 15-7 15-15 9-15 20-15c13 0 20-7 20-20 0-11 7-20 15-20 10 0 15-11 15-35 0-28 4-35 20-35 11 0 20-7 20-15s7-15 15-15c10 0 15-11 15-35 0-33 2-35 35-35 28 0 35-4 35-20 0-13 7-20 20-20 11 0 20-7 20-15s7-15 15-15 15-7 15-15 9-15 20-15c13 0 20-7 20-20 0-11 7-20 15-20s15-7 15-15 9-15 20-15c13 0 20-7 20-20s7-20 20-20c11 0 20-7 20-15s7-15 15-15 15-9 15-20c0-13 7-20 20-20 11 0 20-7 20-15s7-15 15-15 15-9 15-20c0-13 7-20 20-20 11 0 20-7 20-15 0-10 11-15 35-15 28 0 35-4 35-20 0-11 7-20 15-20s15-7 15-15 9-15 20-15 20-7 20-15 7-15 15-15 15-9 15-20c0-13 7-20 20-20 11 0 20-7 20-15 0-10 11-15 35-15 28 0 35-4 35-20 0-11 7-20 15-20s15-7 15-15c0-11 11-15 40-15 33 0 40-3 40-20 0-11 7-20 15-20s15-7 15-15 9-15 20-15c13 0 20-7 20-20 0-11 7-20 15-20s15-7 15-15 9-15 20-15 20-7 20-15 7-15 15-15 15-9 15-20c0-16 7-20 35-20 24 0 35-5 35-15 0-8 9-15 20-15 13 0 20-7 20-20 0-16 7-20 35-20 24 0 35-5 35-15s11-15 35-15c28 0 35-4 35-20s7-20 35-20c24 0 35-5 35-15s11-15 35-15c28 0 35-4 35-20s7-20 35-20c24 0 35-5 35-15s11-15 35-15 35-5 35-15 11-15 35-15c28 0 35-4 35-20s7-20 35-20c24 0 35-5 35-15s11-15 35-15c28 0 35-4 35-20s7-20 35-20c24 0 35-5 35-15 0-11 11-15 40-15 33 0 40-3 40-20s7-20 50-20c38 0 50-4 50-15 0-12 13-15 55-15 48 0 55-2 55-20 0-17 7-20 50-20 38 0 50-4 50-15 0-12 13-15 55-15 48 0 55-2 55-20s7-20 55-20c42 0 55-3 55-15 0-8 7-15 15-15s15-7 15-15c0-12 14-15 70-15 63 0 70-2 70-20s7-20 55-20c42 0 55-3 55-15 0-13 22-15 140-15 133 0 140-1 140-20s7-20 160-20c136 0 160-2 160-15s48-15 370-15 370 2 370 15 26 15 175 15c168 0 175 1 175 20s7 20 90 20c73 0 90 3 90 15s14 15 70 15c63 0 70 2 70 20s7 20 55 20c42 0 55 3 55 15 0 11 12 15 50 15s50 4 50 15c0 12 15 15 75 15 68 0 75 2 75 20 0 17 7 20 50 20 38 0 50 4 50 15 0 10 11 15 35 15 28 0 35 4 35 20 0 18 7 20 55 20 42 0 55 3 55 15s14 15 70 15c63 0 70 2 70 20 0 16 7 20 35 20 24 0 35 5 35 15 0 12 13 15 55 15 48 0 55 2 55 20 0 16 7 20 35 20 24 0 35 5 35 15s11 15 35 15c28 0 35 4 35 20s7 20 35 20c24 0 35 5 35 15s11 15 35 15 35 5 35 15 11 15 35 15c28 0 35 4 35 20s7 20 35 20c24 0 35 5 35 15 0 8 9 15 20 15 13 0 20 7 20 20 0 16 7 20 35 20 24 0 35 5 35 15 0 8 7 15 15 15s15 9 15 20c0 18 7 20 55 20 42 0 55 3 55 15 0 8 7 15 15 15s15 9 15 20c0 13 7 20 20 20 11 0 20 7 20 15 0 10 11 15 35 15s35 5 35 15c0 8 7 15 15 15s15 9 15 20c0 13 7 20 20 20 11 0 20 7 20 15 0 10 11 15 35 15 28 0 35 4 35 20 0 13 7 20 20 20 11 0 20 7 20 15 0 10 11 15 35 15 28 0 35 4 35 20 0 11 7 20 15 20s15 7 15 15 9 15 20 15c13 0 20 7 20 20 0 16 7 20 35 20 24 0 35 5 35 15 0 8 7 15 15 15s15 7 15 15 9 15 20 15c13 0 20 7 20 20 0 11 7 20 15 20s15 7 15 15 9 15 20 15c13 0 20 7 20 20 0 11 7 20 15 20s15 7 15 15 9 15 20 15c13 0 20 7 20 20s7 20 20 20c11 0 20 7 20 15s7 15 15 15 15 9 15 20c0 13 7 20 20 20 11 0 20 7 20 15s7 15 15 15 15 9 15 20c0 13 7 20 20 20 11 0 20 7 20 15s7 15 15 15c10 0 15 11 15 35 0 28 4 35 20 35 11 0 20 7 20 15s7 15 15 15 15 9 15 20c0 13 7 20 20 20 11 0 20 7 20 15s7 15 15 15 15 9 15 20c0 13 7 20 20 20 16 0 20 7 20 35 0 24 5 35 15 35 8 0 15 7 15 15s9 15 20 15 20 7 20 15 7 15 15 15c10 0 15 11 15 35 0 28 4 35 20 35 13 0 20 7 20 20s7 20 20 20c16 0 20 7 20 35 0 24 5 35 15 35 8 0 15 7 15 15s9 15 20 15c16 0 20 7 20 35 0 24 5 35 15 35 8 0 15 7 15 15s9 15 20 15c16 0 20 7 20 35 0 24 5 35 15 35s15 11 15 35c0 28 4 35 20 35s20 7 20 35c0 24 5 35 15 35 8 0 15 9 15 20 0 13 7 20 20 20 16 0 20 7 20 35 0 24 5 35 15 35s15 10 15 30c0 23 4 30 20 30s20 7 20 35c0 24 5 35 15 35s15 11 15 35c0 28 4 35 20 35s20 7 20 35c0 24 5 35 15 35s15 11 15 35c0 28 4 35 20 35s20 7 20 35 4 35 20 35c11 0 20 7 20 15s7 15 15 15c12 0 15 13 15 55 0 48 2 55 20 55 16 0 20 7 20 35 0 24 5 35 15 35s15 10 15 30c0 23 4 30 20 30 18 0 20 7 20 55 0 42 3 55 15 55 11 0 15 12 15 50 0 43 3 50 20 50 18 0 20 7 20 55 0 42 3 55 15 55 11 0 15 12 15 50 0 43 3 50 20 50 18 0 20 7 20 85 0 69 3 85 15 85 11 0 15 12 15 50 0 43 3 50 20 50 19 0 20 7 20 105 0 87 3 105 15 105 13 0 15 20 15 120 0 113 1 120 20 120s20 7 20 190c0 162 2 190 15 190 12 0 15 18 15 105s-3 105-15 105c-13 0-15 39-15 295 0 288 0 295-20 295-18 0-20 7-20 85 0 69-3 85-15 85s-15 14-15 70c0 63-2 70-20 70s-20 7-20 65c0 51-3 65-15 65s-15 14-15 70c0 63-2 70-20 70-17 0-20 7-20 50 0 38-4 50-15 50-12 0-15 14-15 70 0 63-2 70-20 70s-20 7-20 55c0 42-3 55-15 55-11 0-15 12-15 50 0 43-3 50-20 50-16 0-20 7-20 35 0 24-5 35-15 35-11 0-15 12-15 50 0 43-3 50-20 50-16 0-20 7-20 35 0 24-5 35-15 35-11 0-15 12-15 50 0 43-3 50-20 50-16 0-20 7-20 35s-4 35-20 35c-18 0-20 7-20 55 0 42-3 55-15 55-10 0-15 11-15 35 0 28-4 35-20 35s-20 7-20 30c0 20-5 30-15 30s-15 11-15 35c0 28-4 35-20 35s-20 7-20 35c0 24-5 35-15 35s-15 11-15 35c0 28-4 35-20 35-13 0-20 7-20 20 0 11-7 20-15 20-10 0-15 11-15 35 0 28-4 35-20 35s-20 7-20 30c0 20-5 30-15 30-8 0-15 9-15 20 0 13-7 20-20 20-11 0-20 7-20 15s-7 15-15 15c-10 0-15 11-15 35 0 28-4 35-20 35-13 0-20 7-20 20 0 11-7 20-15 20-10 0-15 11-15 35 0 28-4 35-20 35-11 0-20 7-20 15s-9 15-20 15-20 7-20 15-7 15-15 15-15 9-15 20c0 13-7 20-20 20-11 0-20 7-20 15s-7 15-15 15-15 9-15 20c0 13-7 20-20 20-16 0-20 7-20 35 0 33-2 35-35 35-24 0-35 5-35 15 0 8-7 15-15 15s-15 9-15 20c0 13-7 20-20 20-11 0-20 7-20 15s-7 15-15 15c-10 0-15 11-15 35 0 33-2 35-35 35-24 0-35 5-35 15 0 8-9 15-20 15-13 0-20 7-20 20 0 11-7 20-15 20s-15 7-15 15-9 15-20 15c-13 0-20 7-20 20s-7 20-20 20c-11 0-20 7-20 15s-7 15-15 15-15 9-15 20c0 13-7 20-20 20-11 0-20 7-20 15s-7 15-15 15-15 9-15 20c0 13-7 20-20 20-11 0-20 7-20 15 0 10-11 15-35 15s-35 5-35 15c0 8-7 15-15 15s-15 9-15 20c0 13-7 20-20 20-11 0-20 7-20 15s-7 15-15 15-15 9-15 20c0 13-7 20-20 20-11 0-20 7-20 15 0 10-11 15-35 15-28 0-35 4-35 20 0 11-7 20-15 20s-15 7-15 15-9 15-20 15c-13 0-20 7-20 20s-7 20-20 20c-11 0-20 7-20 15s-7 15-15 15-15 7-15 15c0 10-11 15-35 15-28 0-35 4-35 20 0 13-7 20-20 20-11 0-20 7-20 15s-7 15-15 15-15 9-15 20c0 16-7 20-35 20-24 0-35 5-35 15s-11 15-35 15c-28 0-35 4-35 20 0 13-7 20-20 20-11 0-20 7-20 15 0 10-11 15-35 15-28 0-35 4-35 20 0 11-7 20-15 20s-15 7-15 15c0 11-11 15-40 15s-40 4-40 15c0 10-11 15-35 15-28 0-35 4-35 20s-7 20-35 20c-24 0-35 5-35 15s-11 15-35 15c-28 0-35 4-35 20s-7 20-35 20c-24 0-35 5-35 15s-11 15-35 15c-28 0-35 4-35 20s-7 20-35 20c-24 0-35 5-35 15s-11 15-35 15c-28 0-35 4-35 20 0 18-7 20-55 20-42 0-55 3-55 15 0 11-12 15-50 15-43 0-50 3-50 20 0 18-7 20-55 20-42 0-55 3-55 15s-14 15-70 15-70 3-70 15-13 15-55 15c-48 0-55 2-55 20s-7 20-70 20c-56 0-70 3-70 15s-16 15-85 15c-78 0-85 2-85 20 0 19-7 20-160 20-136 0-160 2-160 15s-31 15-215 15c-208 0-215 1-215 20 0 17-7 20-50 20s-50-3-50-20c0-16-7-20-35-20s-35 4-35 20c0 19-7 20-145 20s-145-1-145-20zm680-105c0-13 28-15 195-15 188 0 195-1 195-20s7-20 120-20c100 0 120-2 120-15 0-12 17-15 90-15s90-3 90-15 14-15 70-15c63 0 70-2 70-20 0-16 7-20 35-20 24 0 35-5 35-15 0-12 13-15 55-15 48 0 55-2 55-20 0-16 7-20 35-20 24 0 35-5 35-15 0-11 12-15 50-15 43 0 50-3 50-20 0-16 7-20 35-20 24 0 35-5 35-15 0-11 11-15 40-15 33 0 40-3 40-20s7-20 50-20c38 0 50-4 50-15 0-10 11-15 35-15 28 0 35-4 35-20s7-20 35-20c24 0 35-5 35-15s11-15 35-15 35-5 35-15 11-15 35-15c28 0 35-4 35-20 0-13 7-20 20-20 11 0 20-7 20-15 0-10 11-15 35-15 28 0 35-4 35-20s7-20 35-20c24 0 35-5 35-15 0-8 9-15 20-15 13 0 20-7 20-20 0-16 7-20 35-20 24 0 35-5 35-15s11-15 35-15c28 0 35-4 35-20 0-11 7-20 15-20s15-7 15-15 9-15 20-15 20-7 20-15c0-10 11-15 35-15 28 0 35-4 35-20 0-11 7-20 15-20s15-7 15-15 9-15 20-15c13 0 20-7 20-20 0-16 7-20 35-20 24 0 35-5 35-15 0-8 9-15 20-15 13 0 20-7 20-20 0-11 7-20 15-20s15-7 15-15c0-10 11-15 35-15 33 0 35-2 35-35s2-35 35-35c24 0 35-5 35-15 0-8 9-15 20-15 13 0 20-7 20-20 0-11 7-20 15-20s15-7 15-15 9-15 20-15c13 0 20-7 20-20 0-11 7-20 15-20s15-7 15-15c0-10 11-15 35-15 28 0 35-4 35-20 0-13 7-20 20-20 11 0 20-7 20-15s7-15 15-15 15-9 15-20c0-13 7-20 20-20 11 0 20-7 20-15s9-15 20-15c13 0 20-7 20-20 0-11 7-20 15-20s15-7 15-15 9-15 20-15 20-7 20-15 7-15 15-15 15-9 15-20c0-13 7-20 20-20 11 0 20-7 20-15s7-15 15-15 15-9 15-20c0-13 7-20 20-20 11 0 20-7 20-15s7-15 15-15 15-9 15-20c0-13 7-20 20-20 11 0 20-7 20-15s7-15 15-15 15-9 15-20c0-13 7-20 20-20 11 0 20-7 20-15s7-15 15-15c10 0 15-11 15-35 0-28 4-35 20-35 11 0 20-7 20-15s7-15 15-15 15-9 15-20c0-13 7-20 20-20 11 0 20-7 20-15s9-15 20-15c16 0 20-7 20-35 0-24 5-35 15-35 8 0 15-9 15-20 0-13 7-20 20-20 16 0 20-7 20-30 0-20 5-30 15-30s15-11 15-35c0-28 4-35 20-35 13 0 20-7 20-20 0-11 7-20 15-20 10 0 15-11 15-35 0-28 4-35 20-35s20-7 20-35c0-24 5-35 15-35 8 0 15-7 15-15s9-15 20-15c16 0 20-7 20-35 0-24 5-35 15-35s15-11 15-35c0-28 4-35 20-35 17 0 20-7 20-50 0-38 4-50 15-50 12 0 15-13 15-55 0-48 2-55 20-55 16 0 20-7 20-30 0-20 5-30 15-30 12 0 15-13 15-55 0-48 2-55 20-55 16 0 20-7 20-35s4-35 20-35 20-7 20-35c0-24 5-35 15-35 11 0 15-12 15-50 0-43 3-50 20-50s20-7 20-50c0-38 4-50 15-50 12 0 15-13 15-55 0-48 2-55 20-55 17 0 20-7 20-50 0-38 4-50 15-50 12 0 15-14 15-70 0-63 2-70 20-70s20-7 20-70c0-56 3-70 15-70s15-14 15-65c0-58 2-65 20-65 19 0 20-7 20-90 0-73 3-90 15-90s15-16 15-85c0-78 2-85 20-85 20 0 20-7 20-500s0-500-20-500c-19 0-20-7-20-105 0-87-3-105-15-105s-15-18-15-100c0-93-1-100-20-100-18 0-20-7-20-85 0-69-3-85-15-85s-15-13-15-55c0-48-2-55-20-55s-20-7-20-70c0-56-3-70-15-70s-15-16-15-85c0-78-2-85-20-85-16 0-20-7-20-35 0-24-5-35-15-35-11 0-15-12-15-50 0-43-3-50-20-50-16 0-20-7-20-35 0-24-5-35-15-35-11 0-15-12-15-50 0-43-3-50-20-50-13 0-20-7-20-20s-7-20-20-20c-16 0-20-7-20-35 0-24-5-35-15-35s-15-11-15-35c0-28-4-35-20-35s-20-7-20-30c0-20-5-30-15-30s-15-11-15-35c0-28-4-35-20-35s-20-7-20-35c0-24-5-35-15-35-8 0-15-9-15-20 0-13-7-20-20-20-16 0-20-7-20-35 0-24-5-35-15-35s-15-10-15-30c0-23-4-30-20-30s-20-7-20-35c0-24-5-35-15-35s-15-11-15-35c0-28-4-35-20-35-13 0-20-7-20-20 0-11-7-20-15-20-10 0-15-11-15-35 0-28-4-35-20-35s-20-7-20-35c0-24-5-35-15-35-8 0-15-7-15-15s-9-15-20-15c-16 0-20-7-20-35s-4-35-20-35c-11 0-20-7-20-15s-7-15-15-15c-10 0-15-11-15-35 0-28-4-35-20-35-13 0-20-7-20-20 0-11-7-20-15-20-10 0-15-11-15-35 0-28-4-35-20-35-11 0-20-7-20-15s-7-15-15-15-15-7-15-15-9-15-20-15c-16 0-20-7-20-35 0-24-5-35-15-35-8 0-15-9-15-20 0-13-7-20-20-20-11 0-20-7-20-15s-7-15-15-15-15-9-15-20c0-13-7-20-20-20-11 0-20-7-20-15s-7-15-15-15-15-9-15-20c0-13-7-20-20-20-16 0-20-7-20-30 0-20-5-30-15-30-8 0-15-9-15-20 0-13-7-20-20-20-11 0-20-7-20-15s-9-15-20-15c-13 0-20-7-20-20 0-16-7-20-35-20-24 0-35-5-35-15 0-8-7-15-15-15-10 0-15-11-15-35 0-28-4-35-20-35-13 0-20-7-20-20 0-11-7-20-15-20s-15-7-15-15c0-10-11-15-35-15-28 0-35-4-35-20 0-13-7-20-20-20-11 0-20-7-20-15s-7-15-15-15-15-7-15-15-9-15-20-15c-13 0-20-7-20-20 0-16-7-20-35-20-24 0-35-5-35-15 0-8-7-15-15-15s-15-9-15-20c0-17-7-20-40-20-29 0-40-4-40-15 0-8-7-15-15-15s-15-9-15-20c0-16-7-20-35-20-24 0-35-5-35-15 0-8-9-15-20-15-13 0-20-7-20-20 0-11-7-20-15-20s-15-7-15-15c0-10-11-15-35-15s-35-5-35-15c0-8-9-15-20-15-13 0-20-7-20-20 0-16-7-20-35-20-24 0-35-5-35-15 0-8-7-15-15-15s-15-9-15-20c0-16-7-20-35-20-24 0-35-5-35-15 0-11-11-15-40-15-33 0-40-3-40-20 0-16-7-20-35-20-24 0-35-5-35-15 0-8-7-15-15-15s-15-9-15-20c0-16-7-20-35-20-24 0-35-5-35-15 0-12-13-15-55-15s-55-3-55-15c0-11-12-15-50-15-43 0-50-3-50-20 0-13-7-20-20-20-11 0-20-7-20-15 0-12-13-15-55-15-48 0-55-2-55-20 0-17-7-20-50-20-38 0-50-4-50-15 0-12-14-15-70-15-63 0-70-2-70-20s-7-20-55-20c-42 0-55-3-55-15 0-10-11-15-35-15-28 0-35-4-35-20 0-18-7-20-70-20-56 0-70-3-70-15s-14-15-70-15c-63 0-70-2-70-20s-7-20-55-20c-42 0-55-3-55-15s-14-15-70-15-70-3-70-15c0-13-21-15-125-15-118 0-125-1-125-20 0-20-7-20-580-20s-580 0-580 20c0 19-7 20-110 20-91 0-110 3-110 15s-18 15-105 15-105 3-105 15c0 11-12 15-50 15-43 0-50 3-50 20 0 16-7 20-35 20-24 0-35 5-35 15 0 12-13 15-55 15-48 0-55 2-55 20s-7 20-55 20c-42 0-55 3-55 15 0 11-12 15-50 15-43 0-50 3-50 20 0 16-7 20-35 20-24 0-35 5-35 15 0 12-14 15-70 15-63 0-70 2-70 20 0 16-7 20-35 20-24 0-35 5-35 15 0 11-11 15-40 15-33 0-40 3-40 20 0 16-7 20-35 20-24 0-35 5-35 15 0 11-12 15-50 15s-50 4-50 15c0 8-9 15-20 15-13 0-20 7-20 20 0 16-7 20-35 20-24 0-35 5-35 15s-11 15-35 15c-28 0-35 4-35 20 0 11-7 20-15 20s-15 7-15 15c0 10-11 15-35 15-28 0-35 4-35 20 0 17-7 20-40 20-29 0-40 4-40 15 0 10-11 15-35 15-28 0-35 4-35 20s-7 20-35 20c-24 0-35 5-35 15 0 8-7 15-15 15s-15 7-15 15c0 10-11 15-35 15-28 0-35 4-35 20 0 13-7 20-20 20-11 0-20 7-20 15 0 10-11 15-35 15-28 0-35 4-35 20 0 11-7 20-15 20s-15 7-15 15-9 15-20 15c-13 0-20 7-20 20 0 11-7 20-15 20s-15 7-15 15c0 11-11 15-40 15-33 0-40 3-40 20 0 11-7 20-15 20s-15 7-15 15-9 15-20 15-20 7-20 15-7 15-15 15-15 9-15 20c0 13-7 20-20 20-11 0-20 7-20 15s-7 15-15 15-15 9-15 20c0 16-7 20-35 20-24 0-35 5-35 15 0 8-9 15-20 15-13 0-20 7-20 20 0 11-7 20-15 20s-15 7-15 15-9 15-20 15c-13 0-20 7-20 20 0 11-7 20-15 20s-15 7-15 15-9 15-20 15c-13 0-20 7-20 20 0 16-7 20-35 20-24 0-35 5-35 15 0 8-9 15-20 15s-20 7-20 15-7 15-15 15-15 9-15 20c0 13-7 20-20 20-11 0-20 7-20 15s-7 15-15 15c-10 0-15 11-15 35 0 28-4 35-20 35-13 0-20 7-20 20 0 11-7 20-15 20s-15 7-15 15-9 15-20 15c-16 0-20 7-20 35 0 24-5 35-15 35-8 0-15 7-15 15s-9 15-20 15c-13 0-20 7-20 20 0 11-7 20-15 20s-15 7-15 15-9 15-20 15c-16 0-20 7-20 35 0 24-5 35-15 35-8 0-15 9-15 20 0 13-7 20-20 20-11 0-20 7-20 15s-7 15-15 15c-10 0-15 11-15 35 0 28-4 35-20 35-11 0-20 7-20 15s-9 15-20 15c-13 0-20 7-20 20 0 11-7 20-15 20-10 0-15 11-15 35 0 28-4 35-20 35s-20 7-20 35c0 24-5 35-15 35-8 0-15 7-15 15s-9 15-20 15c-16 0-20 7-20 35 0 24-5 35-15 35-8 0-15 9-15 20 0 13-7 20-20 20-16 0-20 7-20 30 0 20-5 30-15 30s-15 11-15 35c0 28-4 35-20 35s-20 7-20 35c0 24-5 35-15 35s-15 11-15 35c0 28-4 35-20 35s-20 7-20 35c0 24-5 35-15 35s-15 11-15 35c0 28-4 35-20 35s-20 7-20 35c0 24-5 35-15 35-11 0-15 12-15 50 0 43-3 50-20 50-16 0-20 7-20 35s-4 35-20 35c-17 0-20 7-20 50 0 38-4 50-15 50-10 0-15 11-15 35 0 28-4 35-20 35-18 0-20 7-20 55 0 42-3 55-15 55s-15 14-15 65c0 58-2 65-20 65s-20 7-20 70c0 56-3 70-15 70s-15 14-15 70c0 63-2 70-20 70-19 0-20 7-20 105 0 87-3 105-15 105-13 0-15 26-15 170 0 163-1 170-20 170-20 0-20 7-20 450 0 393-2 450-15 450-8 0-15 7-15 15s7 15 15 15c13 0 15 20 15 120 0 113 1 120 20 120s20 7 20 90c0 73 3 90 15 90s15 14 15 65c0 58 2 65 20 65s20 7 20 70c0 56 3 70 15 70s15 13 15 55c0 48 2 55 20 55s20 7 20 65c0 51 3 65 15 65s15 14 15 70c0 63 2 70 20 70 16 0 20 7 20 35 0 24 5 35 15 35 11 0 15 12 15 50 0 43 3 50 20 50 16 0 20 7 20 35s4 35 20 35c18 0 20 7 20 55 0 42 3 55 15 55 10 0 15 11 15 35 0 28 4 35 20 35s20 7 20 30c0 20 5 30 15 30s15 11 15 35c0 28 4 35 20 35 18 0 20 7 20 55 0 42 3 55 15 55 10 0 15 11 15 35 0 28 4 35 20 35s20 7 20 30c0 20 5 30 15 30s15 11 15 35c0 28 4 35 20 35 13 0 20 7 20 20 0 11 7 20 15 20 10 0 15 11 15 35 0 28 4 35 20 35 11 0 20 7 20 15s7 15 15 15c10 0 15 11 15 35 0 28 4 35 20 35s20 7 20 35c0 24 5 35 15 35 8 0 15 7 15 15s9 15 20 15c16 0 20 7 20 35s4 35 20 35c13 0 20 7 20 20 0 11 7 20 15 20s15 7 15 15 9 15 20 15c16 0 20 7 20 35 0 24 5 35 15 35 8 0 15 9 15 20 0 13 7 20 20 20 11 0 20 7 20 15s7 15 15 15c10 0 15 11 15 35 0 28 4 35 20 35 11 0 20 7 20 15s7 15 15 15 15 9 15 20c0 13 7 20 20 20 11 0 20 7 20 15s7 15 15 15 15 9 15 20c0 13 7 20 20 20 11 0 20 7 20 15s7 15 15 15 15 9 15 20c0 13 7 20 20 20 11 0 20 7 20 15s7 15 15 15 15 7 15 15 9 15 20 15c13 0 20 7 20 20s7 20 20 20c11 0 20 7 20 15s7 15 15 15 15 9 15 20c0 16 7 20 35 20 24 0 35 5 35 15 0 8 9 15 20 15 16 0 20 7 20 35 0 33 2 35 35 35 28 0 35 4 35 20 0 11 7 20 15 20s15 7 15 15 9 15 20 15c13 0 20 7 20 20 0 11 7 20 15 20s15 7 15 15 9 15 20 15 20 7 20 15 7 15 15 15 15 9 15 20c0 16 7 20 35 20 24 0 35 5 35 15 0 8 9 15 20 15 13 0 20 7 20 20s7 20 20 20c11 0 20 7 20 15s7 15 15 15 15 9 15 20c0 16 7 20 35 20 24 0 35 5 35 15 0 8 9 15 20 15 13 0 20 7 20 20 0 16 7 20 35 20 24 0 35 5 35 15 0 8 7 15 15 15s15 7 15 15c0 10 11 15 35 15 28 0 35 4 35 20 0 13 7 20 20 20 11 0 20 7 20 15 0 10 11 15 35 15 28 0 35 4 35 20 0 11 7 20 15 20s15 7 15 15c0 11 11 15 40 15 33 0 40 3 40 20 0 11 7 20 15 20s15 7 15 15c0 10 11 15 35 15 28 0 35 4 35 20s7 20 35 20c24 0 35 5 35 15s11 15 35 15 35 5 35 15 11 15 35 15c28 0 35 4 35 20s7 20 35 20c24 0 35 5 35 15 0 12 13 15 55 15 48 0 55 2 55 20s7 20 55 20c42 0 55 3 55 15 0 10 11 15 35 15 28 0 35 4 35 20s7 20 35 20c24 0 35 5 35 15 0 11 12 15 50 15 43 0 50 3 50 20 0 18 7 20 70 20 56 0 70 3 70 15s15 15 75 15c68 0 75 2 75 20 0 17 7 20 50 20 38 0 50 4 50 15 0 13 21 15 125 15s125 2 125 15c0 12 18 15 105 15 98 0 105 1 105 20 0 20 7 20 355 20 309 0 355 2 355 15s24 15 160 15 160-2 160-15z"/>
<path d="m4770 9535c0-13-26-15-175-15-168 0-175-1-175-20s-7-20-110-20c-91 0-110-3-110-15s-14-15-70-15c-63 0-70-2-70-20 0-19-7-20-105-20-87 0-105-3-105-15s-14-15-70-15c-63 0-70-2-70-20s-7-20-55-20c-42 0-55-3-55-15 0-11-12-15-50-15s-50-4-50-15c0-10-11-15-35-15-28 0-35-4-35-20 0-18-7-20-55-20-42 0-55-3-55-15 0-10-11-15-35-15-28 0-35-4-35-20s-7-20-35-20c-24 0-35-5-35-15 0-12-13-15-55-15-48 0-55-2-55-20 0-16-7-20-35-20-24 0-35-5-35-15s-11-15-35-15c-28 0-35-4-35-20s-7-20-35-20c-24 0-35-5-35-15s-11-15-35-15-35-5-35-15-11-15-35-15c-28 0-35-4-35-20s-7-20-35-20c-24 0-35-5-35-15 0-8-9-15-20-15-13 0-20-7-20-20 0-16-7-20-35-20-24 0-35-5-35-15s-11-15-35-15c-28 0-35-4-35-20 0-11-7-20-15-20s-15-7-15-15c0-10-11-15-35-15-28 0-35-4-35-20 0-13-7-20-20-20-11 0-20-7-20-15 0-10-11-15-35-15s-35-5-35-15c0-8-7-15-15-15s-15-9-15-20c0-13-7-20-20-20-11 0-20-7-20-15s-7-15-15-15-15-9-15-20c0-13-7-20-20-20-11 0-20-7-20-15s-9-15-20-15c-13 0-20-7-20-20 0-11-7-20-15-20s-15-7-15-15-9-15-20-15c-13 0-20-7-20-20 0-11-7-20-15-20s-15-7-15-15c0-10-11-15-35-15-28 0-35-4-35-20 0-13-7-20-20-20-16 0-20-7-20-30 0-20-5-30-15-30-8 0-15-9-15-20 0-13-7-20-20-20-11 0-20-7-20-15s-7-15-15-15-15-9-15-20c0-13-7-20-20-20-11 0-20-7-20-15s-7-15-15-15-15-9-15-20c0-13-7-20-20-20-11 0-20-7-20-15s-7-15-15-15-15-9-15-20c0-13-7-20-20-20-16 0-20-7-20-30s-4-30-20-30c-13 0-20-7-20-20 0-11-7-20-15-20s-15-7-15-15-9-15-20-15c-13 0-20-7-20-20 0-11-7-20-15-20s-15-7-15-15-9-15-20-15c-16 0-20-7-20-35 0-24-5-35-15-35-8 0-15-9-15-20 0-13-7-20-20-20-16 0-20-7-20-30 0-20-5-30-15-30s-15-11-15-35c0-28-4-35-20-35-13 0-20-7-20-20 0-11-7-20-15-20-10 0-15-11-15-35 0-28-4-35-20-35s-20-7-20-35c0-24-5-35-15-35s-15-11-15-35c0-28-4-35-20-35s-20-7-20-30c0-20-5-30-15-30-8 0-15-9-15-20 0-13-7-20-20-20-16 0-20-7-20-35s-4-35-20-35-20-7-20-35c0-24-5-35-15-35s-15-11-15-35c0-28-4-35-20-35-17 0-20-7-20-50 0-38-4-50-15-50-10 0-15-11-15-35 0-28-4-35-20-35s-20-7-20-35c0-24-5-35-15-35-11 0-15-12-15-50 0-43-3-50-20-50-16 0-20-7-20-35 0-24-5-35-15-35-11 0-15-12-15-50 0-43-3-50-20-50-18 0-20-7-20-55 0-42-3-55-15-55-11 0-15-12-15-50 0-43-3-50-20-50-18 0-20-7-20-70 0-56-3-70-15-70-11 0-15-12-15-50 0-43-3-50-20-50-18 0-20-7-20-70 0-56-3-70-15-70s-15-18-15-105c0-98-1-105-20-105s-20-7-20-240-1-240-20-240c-20 0-20-7-20-290s0-290 20-290c19 0 20-7 20-190s1-190 20-190c18 0 20-7 20-55 0-42 3-55 15-55s15-16 15-85c0-78 2-85 20-85 17 0 20-7 20-50 0-38 4-50 15-50 12 0 15-14 15-70 0-63 2-70 20-70 16 0 20-7 20-35 0-24 5-35 15-35 12 0 15-14 15-70 0-63 2-70 20-70 16 0 20-7 20-35 0-24 5-35 15-35 12 0 15-14 15-70 0-63 2-70 20-70 16 0 20-7 20-30 0-20 5-30 15-30s15-11 15-35c0-28 4-35 20-35 18 0 20-7 20-55 0-42 3-55 15-55 10 0 15-11 15-35 0-28 4-35 20-35 17 0 20-7 20-50 0-38 4-50 15-50 8 0 15-7 15-15s9-15 20-15c16 0 20-7 20-35s4-35 20-35 20-7 20-35c0-24 5-35 15-35s15-11 15-35c0-28 4-35 20-35 11 0 20-7 20-15s7-15 15-15c12 0 15-13 15-55 0-48 2-55 20-55 11 0 20-7 20-15s7-15 15-15c10 0 15-11 15-35 0-28 4-35 20-35 13 0 20-7 20-20 0-11 7-20 15-20s15-7 15-15 9-15 20-15c16 0 20-7 20-35 0-24 5-35 15-35 8 0 15-7 15-15s9-15 20-15c13 0 20-7 20-20 0-11 7-20 15-20 10 0 15-11 15-35 0-28 4-35 20-35 11 0 20-7 20-15s7-15 15-15 15-9 15-20c0-13 7-20 20-20 16 0 20-7 20-35s4-35 20-35c11 0 20-7 20-15s7-15 15-15 15-7 15-15 9-15 20-15c13 0 20-7 20-20 0-11 7-20 15-20s15-7 15-15 9-15 20-15c13 0 20-7 20-20 0-11 7-20 15-20 10 0 15-11 15-35 0-33 2-35 35-35 24 0 35-5 35-15 0-8 9-15 20-15 13 0 20-7 20-20 0-11 7-20 15-20s15-7 15-15 9-15 20-15 20-7 20-15 7-15 15-15 15-9 15-20c0-13 7-20 20-20 11 0 20-7 20-15s7-15 15-15 15-9 15-20c0-17 7-20 40-20 39 0 40-1 40-35 0-33 2-35 35-35 24 0 35-5 35-15 0-8 7-15 15-15s15-9 15-20c0-13 7-20 20-20 11 0 20-7 20-15s7-15 15-15 15-9 15-20c0-16 7-20 35-20 24 0 35-5 35-15 0-8 9-15 20-15s20-7 20-15c0-10 11-15 35-15 28 0 35-4 35-20 0-11 7-20 15-20s15-7 15-15c0-10 11-15 35-15 28 0 35-4 35-20 0-13 7-20 20-20 11 0 20-7 20-15 0-10 11-15 35-15 28 0 35-4 35-20s7-20 35-20c24 0 35-5 35-15 0-8 9-15 20-15 13 0 20-7 20-20 0-16 7-20 35-20 24 0 35-5 35-15s11-15 35-15 35-5 35-15c0-8 7-15 15-15s15-9 15-20c0-18 7-20 55-20 42 0 55-3 55-15 0-10 11-15 35-15 28 0 35-4 35-20 0-18 7-20 55-20 42 0 55-3 55-15 0-10 11-15 35-15 28 0 35-4 35-20s7-20 35-20c24 0 35-5 35-15 0-12 14-15 70-15 63 0 70-2 70-20s7-20 70-20c56 0 70-3 70-15s13-15 55-15 55-3 55-15c0-11 12-15 50-15 43 0 50-3 50-20 0-19 7-20 105-20 87 0 105-3 105-15s17-15 90-15c83 0 90-1 90-20s7-20 160-20c136 0 160-2 160-15s44-15 335-15 335 2 335 15 36 15 265 15c258 0 265 1 265 20s7 20 105 20c87 0 105 3 105 15 0 10 11 15 35 15 28 0 35 4 35 20 0 18 7 20 55 20 42 0 55 3 55 15s14 15 70 15 70 3 70 15 13 15 55 15c48 0 55 2 55 20 0 17 7 20 50 20 38 0 50 4 50 15 0 10 11 15 35 15 28 0 35 4 35 20s7 20 35 20c24 0 35 5 35 15s11 15 35 15c28 0 35 4 35 20 0 18 7 20 55 20 42 0 55 3 55 15 0 10 11 15 35 15 28 0 35 4 35 20 0 18 7 20 55 20 42 0 55 3 55 15 0 8 7 15 15 15s15 7 15 15c0 12 13 15 55 15 48 0 55 2 55 20 0 11 7 20 15 20s15 7 15 15c0 10 11 15 35 15 28 0 35 4 35 20 0 17 7 20 40 20 29 0 40 4 40 15 0 8 7 15 15 15s15 9 15 20c0 13 7 20 20 20 11 0 20 7 20 15 0 10 11 15 35 15 28 0 35 4 35 20 0 11 7 20 15 20s15 7 15 15 9 15 20 15 20 7 20 15c0 10 11 15 35 15 28 0 35 4 35 20s7 20 35 20c24 0 35 5 35 15 0 8 7 15 15 15s15 9 15 20c0 13 7 20 20 20 11 0 20 7 20 15s7 15 15 15 15 9 15 20c0 13 7 20 20 20 11 0 20 7 20 15s9 15 20 15c13 0 20 7 20 20 0 11 7 20 15 20s15 7 15 15c0 10 11 15 35 15 28 0 35 4 35 20 0 13 7 20 20 20 11 0 20 7 20 15s7 15 15 15c10 0 15 11 15 35 0 28 4 35 20 35 11 0 20 7 20 15 0 10 11 15 35 15 28 0 35 4 35 20 0 11 7 20 15 20s15 7 15 15 9 15 20 15c13 0 20 7 20 20 0 11 7 20 15 20s15 7 15 15 9 15 20 15c13 0 20 7 20 20 0 11 7 20 15 20s15 7 15 15 9 15 20 15 20 7 20 15 9 15 20 15c13 0 20 7 20 20 0 11 7 20 15 20s15 7 15 15 9 15 20 15c16 0 20 7 20 35 0 24 5 35 15 35 8 0 15 9 15 20 0 13 7 20 20 20 11 0 20 7 20 15s7 15 15 15 15 9 15 20c0 13 7 20 20 20 16 0 20 7 20 30 0 20 5 30 15 30s15 11 15 35c0 28 4 35 20 35 13 0 20 7 20 20 0 11 7 20 15 20s15 7 15 15 9 15 20 15c16 0 20 7 20 35 0 24 5 35 15 35 8 0 15 9 15 20 0 13 7 20 20 20 16 0 20 7 20 35 0 24 5 35 15 35 8 0 15 7 15 15s9 15 20 15c16 0 20 7 20 35s4 35 20 35c17 0 20 7 20 50 0 38 4 50 15 50 8 0 15 9 15 20 0 13 7 20 20 20 16 0 20 7 20 35 0 24 5 35 15 35 11 0 15 12 15 50 0 43 3 50 20 50 16 0 20 7 20 35 0 24 5 35 15 35s15 11 15 35c0 28 4 35 20 35 18 0 20 7 20 65 0 51 3 65 15 65 10 0 15 11 15 35 0 28 4 35 20 35 18 0 20 7 20 55 0 42 3 55 15 55s15 14 15 70c0 63 2 70 20 70s20 7 20 65c0 51 3 65 15 65s15 13 15 55c0 48 2 55 20 55s20 7 20 65c0 51 3 65 15 65s15 14 15 70c0 63 2 70 20 70s20 7 20 85 2 85 20 85c19 0 20 7 20 140 0 118 2 140 15 140s15 51 15 395-2 395-15 395-15 26-15 175c0 168-1 175-20 175s-20 7-20 120-1 120-20 120-20 7-20 105c0 87-3 105-15 105s-15 14-15 65c0 58-2 65-20 65s-20 7-20 55c0 42-3 55-15 55-10 0-15 11-15 35 0 28-4 35-20 35-18 0-20 7-20 70 0 56-3 70-15 70-10 0-15 10-15 30 0 23-4 30-20 30s-20 7-20 35c0 24-5 35-15 35-12 0-15 13-15 55 0 48-2 55-20 55-16 0-20 7-20 35 0 24-5 35-15 35s-15 10-15 30c0 23-4 30-20 30s-20 7-20 35c0 24-5 35-15 35-8 0-15 9-15 20 0 13-7 20-20 20-16 0-20 7-20 35 0 24-5 35-15 35s-15 11-15 35c0 28-4 35-20 35-11 0-20 7-20 15s-9 15-20 15c-16 0-20 7-20 35 0 24-5 35-15 35-8 0-15 7-15 15s-9 15-20 15c-13 0-20 7-20 20 0 11-7 20-15 20-10 0-15 11-15 35 0 28-4 35-20 35s-20 7-20 35c0 24-5 35-15 35-8 0-15 7-15 15s-9 15-20 15c-16 0-20 7-20 35 0 24-5 35-15 35-8 0-15 7-15 15s-9 15-20 15c-13 0-20 7-20 20 0 11-7 20-15 20-10 0-15 11-15 35 0 28-4 35-20 35-11 0-20 7-20 15s-7 15-15 15-15 9-15 20c0 13-7 20-20 20-11 0-20 7-20 15s-7 15-15 15c-10 0-15 11-15 35 0 28-4 35-20 35-11 0-20 7-20 15s-9 15-20 15c-13 0-20 7-20 20 0 11-7 20-15 20s-15 7-15 15-9 15-20 15c-13 0-20 7-20 20 0 11-7 20-15 20s-15 7-15 15-9 15-20 15c-16 0-20 7-20 35 0 24-5 35-15 35-8 0-15 9-15 20 0 13-7 20-20 20-11 0-20 7-20 15 0 10-11 15-35 15s-35 5-35 15c0 8-7 15-15 15s-15 9-15 20c0 13-7 20-20 20-11 0-20 7-20 15s-7 15-15 15-15 9-15 20c0 13-7 20-20 20-11 0-20 7-20 15s-7 15-15 15-15 9-15 20c0 13-7 20-20 20-11 0-20 7-20 15 0 10-11 15-35 15-28 0-35 4-35 20 0 13-7 20-20 20-11 0-20 7-20 15s-7 15-15 15-15 9-15 20c0 16-7 20-35 20-24 0-35 5-35 15 0 8-9 15-20 15s-20 7-20 15-7 15-15 15-15 9-15 20c0 16-7 20-35 20-24 0-35 5-35 15s-11 15-35 15c-28 0-35 4-35 20 0 13-7 20-20 20-11 0-20 7-20 15 0 10-11 15-35 15-28 0-35 4-35 20 0 13-7 20-20 20-11 0-20 7-20 15 0 10-11 15-35 15-28 0-35 4-35 20s-7 20-35 20c-24 0-35 5-35 15s-11 15-35 15-35 5-35 15c0 8-7 15-15 15s-15 9-15 20c0 16-7 20-35 20-24 0-35 5-35 15s-11 15-35 15c-28 0-35 4-35 20 0 18-7 20-55 20-42 0-55 3-55 15 0 10-11 15-35 15-28 0-35 4-35 20s-7 20-35 20c-24 0-35 5-35 15s-11 15-35 15c-28 0-35 4-35 20s-7 20-35 20c-24 0-35 5-35 15 0 12-13 15-55 15s-55 3-55 15c0 11-12 15-50 15-43 0-50 3-50 20 0 18-7 20-75 20-60 0-75 3-75 15s-14 15-70 15c-63 0-70 2-70 20s-7 20-85 20c-69 0-85 3-85 15s-19 15-110 15c-103 0-110 1-110 20s-7 20-140 20c-118 0-140 2-140 15s-40 15-300 15-300-2-300-15zm880-380c0-12 17-15 90-15 83 0 90-1 90-20 0-18 7-20 70-20 56 0 70-3 70-15s14-15 70-15c63 0 70-2 70-20s7-20 70-20c56 0 70-3 70-15 0-11 11-15 40-15s40-4 40-15 12-15 50-15c43 0 50-3 50-20 0-16 7-20 35-20 24 0 35-5 35-15 0-12 13-15 55-15 48 0 55-2 55-20 0-16 7-20 35-20 24 0 35-5 35-15s11-15 35-15c28 0 35-4 35-20 0-18 7-20 55-20 42 0 55-3 55-15 0-11 12-15 50-15 43 0 50-3 50-20 0-16 7-20 35-20 24 0 35-5 35-15s11-15 35-15 35-5 35-15 11-15 35-15c28 0 35-4 35-20 0-13 7-20 20-20 11 0 20-7 20-15 0-10 11-15 35-15 28 0 35-4 35-20 0-11 7-20 15-20s15-7 15-15c0-11 11-15 40-15 33 0 40-3 40-20 0-11 7-20 15-20s15-7 15-15 9-15 20-15c13 0 20-7 20-20 0-16 7-20 35-20 24 0 35-5 35-15 0-8 7-15 15-15s15-9 15-20c0-13 7-20 20-20 11 0 20-7 20-15s7-15 15-15 15-7 15-15 9-15 20-15c13 0 20-7 20-20 0-11 7-20 15-20s15-7 15-15 9-15 20-15c13 0 20-7 20-20 0-11 7-20 15-20 10 0 15-11 15-35s-5-35-15-35c-8 0-15 9-15 20 0 16-7 20-35 20-24 0-35 5-35 15 0 12-13 15-55 15-48 0-55 2-55 20 0 16-7 20-35 20-24 0-35 5-35 15 0 11-12 15-50 15-43 0-50 3-50 20 0 18-7 20-55 20-42 0-55 3-55 15s-14 15-70 15-70 3-70 15-14 15-70 15c-63 0-70 2-70 20s-7 20-70 20c-56 0-70 3-70 15s-17 15-90 15c-83 0-90 1-90 20s-7 20-90 20c-73 0-90 3-90 15s-16 15-85 15c-78 0-85 2-85 20 0 19-7 20-90 20-73 0-90 3-90 15s-18 15-105 15c-98 0-105 1-105 20s-7 20-230 20c-198 0-230 2-230 15 0 12-13 15-55 15s-55-3-55-15c0-13-26-15-175-15-168 0-175-1-175-20 0-18-7-20-55-20-42 0-55-3-55-15 0-10-11-15-35-15-28 0-35-4-35-20s-7-20-35-20c-24 0-35-5-35-15s-11-15-35-15c-28 0-35-4-35-20 0-13-7-20-20-20-11 0-20-7-20-15s-7-15-15-15-15-9-15-20c0-13-7-20-20-20-16 0-20-7-20-30 0-20-5-30-15-30-8 0-15-9-15-20 0-13-7-20-20-20-17 0-20-7-20-50 0-38-4-50-15-50-10 0-15-11-15-35 0-28-4-35-20-35-19 0-20-7-20-190s1-190 20-190c16 0 20-7 20-35 0-24 5-35 15-35s15-11 15-35c0-28 4-35 20-35s20-7 20-35c0-24 5-35 15-35 8 0 15-7 15-15 0-12 14-15 70-15s70 3 70 15c0 11 11 15 40 15 33 0 40 3 40 20 0 11 7 20 15 20s15 7 15 15c0 10 11 15 35 15 28 0 35 4 35 20 0 13 7 20 20 20 11 0 20 7 20 15 0 10 11 15 35 15 28 0 35 4 35 20 0 11 7 20 15 20s15 7 15 15c0 10 11 15 35 15s35 5 35 15 11 15 35 15c28 0 35 4 35 20 0 17 7 20 40 20 29 0 40 4 40 15 0 10 11 15 35 15 28 0 35 4 35 20 0 17 7 20 50 20 38 0 50 4 50 15 0 12 17 15 90 15 83 0 90 1 90 20 0 18 7 20 70 20 56 0 70 3 70 15s14 15 70 15c63 0 70 2 70 20 0 19 7 20 105 20 87 0 105 3 105 15 0 13 54 15 425 15s425-2 425-15c0-12 18-15 105-15 98 0 105-1 105-20 0-18 7-20 70-20 56 0 70-3 70-15s15-15 75-15c68 0 75-2 75-20 0-17 7-20 50-20 38 0 50-4 50-15 0-12 13-15 55-15 48 0 55-2 55-20 0-16 7-20 35-20 24 0 35-5 35-15 0-11 12-15 50-15 43 0 50-3 50-20s7-20 40-20c29 0 40-4 40-15 0-10 11-15 35-15s35-5 35-15 11-15 35-15c28 0 35-4 35-20 0-11 7-20 15-20s15-7 15-15 9-15 20-15c13 0 20-7 20-20 0-11 7-20 15-20s15-7 15-15c0-10 11-15 35-15 28 0 35-4 35-20 0-13 7-20 20-20 11 0 20-7 20-15s7-15 15-15 15-9 15-20c0-13 7-20 20-20 11 0 20-7 20-15s7-15 15-15 15-9 15-20c0-13 7-20 20-20 16 0 20-7 20-30s4-30 20-30c13 0 20-7 20-20 0-11 7-20 15-20s15-7 15-15 9-15 20-15c13 0 20-7 20-20 0-11 7-20 15-20 10 0 15-11 15-35 0-28 4-35 20-35s20-7 20-35c0-24 5-35 15-35 8 0 15-7 15-15s9-15 20-15c16 0 20-7 20-35 0-24 5-35 15-35s15-11 15-35c0-28 4-35 20-35s20-7 20-35c0-24 5-35 15-35s15-11 15-35c0-28 4-35 20-35 17 0 20-7 20-50 0-38 4-50 15-50s15-12 15-50c0-43 3-50 20-50 18 0 20-7 20-70 0-56 3-70 15-70 13 0 15-20 15-120s-2-120-15-120c-10 0-15-11-15-35 0-28-4-35-20-35-13 0-20-7-20-20 0-19-7-20-190-20s-190 1-190 20-7 20-160 20c-136 0-160 2-160 15s-42 15-320 15c-313 0-320 0-320 20 0 11-7 20-15 20s-15-9-15-20c0-19-7-20-195-20-167 0-195-2-195-15s-32-15-230-15c-223 0-230-1-230-20s-7-20-230-20c-198 0-230-2-230-15s-21-15-125-15-125-2-125-15c0-12-18-15-105-15-98 0-105-1-105-20s-7-20-90-20c-73 0-90-3-90-15s-18-15-105-15c-98 0-105-1-105-20 0-18-7-20-55-20-42 0-55-3-55-15s-14-15-70-15c-63 0-70-2-70-20 0-16-7-20-35-20-24 0-35-5-35-15 0-11-12-15-50-15-43 0-50-3-50-20 0-16-7-20-35-20-24 0-35-5-35-15 0-12-13-15-55-15s-55-3-55-15-13-15-55-15c-48 0-55-2-55-20 0-16-7-20-35-20-24 0-35-5-35-15s-11-15-35-15c-28 0-35-4-35-20s-7-20-35-20c-24 0-35-5-35-15s-11-15-35-15c-28 0-35-4-35-20s-7-20-35-20c-24 0-35-5-35-15 0-8-9-15-20-15-13 0-20-7-20-20 0-16-7-20-35-20-24 0-35-5-35-15 0-8-7-15-15-15s-15-9-15-20c0-16-7-20-35-20-24 0-35-5-35-15 0-8-9-15-20-15s-20-7-20-15-7-15-15-15-15-9-15-20c0-16-7-20-35-20-24 0-35-5-35-15 0-8-9-15-20-15-13 0-20-7-20-20 0-11-7-20-15-20s-15-7-15-15-9-15-20-15c-13 0-20-7-20-20 0-11-7-20-15-20s-15-7-15-15c0-11-11-15-40-15h-40v50c0 43 3 50 20 50 19 0 20 7 20 155s1 155 20 155c18 0 20 7 20 70 0 56 3 70 15 70s15 14 15 70c0 63 2 70 20 70 17 0 20 7 20 50 0 38 4 50 15 50 12 0 15 13 15 55 0 48 2 55 20 55 16 0 20 7 20 30 0 20 5 30 15 30s15 11 15 35c0 28 4 35 20 35 13 0 20 7 20 20 0 11 7 20 15 20s15 7 15 15 9 15 20 15c13 0 20 7 20 20 0 11 7 20 15 20 10 0 15 11 15 35 0 33 2 35 35 35 24 0 35 5 35 15 0 8 9 15 20 15s20 7 20 15 7 15 15 15 15 9 15 20c0 17 7 20 40 20 29 0 40 4 40 15 0 8 7 15 15 15s15 9 15 20c0 16 7 20 35 20 24 0 35 5 35 15s11 15 35 15c28 0 35 4 35 20s7 20 35 20c24 0 35 5 35 15s11 15 35 15c28 0 35 4 35 20s7 20 35 20c24 0 35 5 35 15 0 12 13 15 55 15 48 0 55 2 55 20s7 20 55 20c42 0 55 3 55 15 0 11 12 15 50 15s50 4 50 15c0 12 14 15 70 15 63 0 70 2 70 20 0 19 7 20 125 20 104 0 125 2 125 15s24 15 160 15c153 0 160 1 160 20s7 20 195 20c167 0 195 2 195 15s28 15 195 15c188 0 195 1 195 20s7 20 265 20c229 0 265 2 265 15 0 10 11 15 35 15 28 0 35 4 35 20s7 20 35 20c24 0 35 5 35 15s11 15 35 15 35 5 35 15c0 8 7 15 15 15s15 9 15 20c0 13 7 20 20 20 16 0 20 7 20 35 0 24 5 35 15 35 13 0 15 22 15 135s-2 135-15 135c-10 0-15 11-15 35 0 28-4 35-20 35s-20 7-20 35c0 24-5 35-15 35-8 0-15 9-15 20 0 16-7 20-35 20-24 0-35 5-35 15 0 12-13 15-55 15-48 0-55 2-55 20 0 19-7 20-125 20-104 0-125 2-125 15s-38 15-280 15-280-2-280-15-21-15-125-15c-118 0-125-1-125-20 0-17-7-20-50-20-38 0-50-4-50-15 0-12-13-15-55-15-48 0-55-2-55-20 0-19-7-20-90-20-73 0-90-3-90-15 0-11-12-15-50-15-43 0-50-3-50-20 0-16-7-20-35-20-24 0-35-5-35-15s-11-15-35-15c-28 0-35-4-35-20 0-18-7-20-55-20-42 0-55-3-55-15 0-10-11-15-35-15-28 0-35-4-35-20 0-13-7-20-20-20-11 0-20-7-20-15 0-10-11-15-35-15s-35-5-35-15-11-15-35-15c-28 0-35-4-35-20 0-11-7-20-15-20s-15-7-15-15c0-10-11-15-35-15-28 0-35-4-35-20s-7-20-35-20c-24 0-35-5-35-15 0-11-11-15-40-15-33 0-40-3-40-20 0-16-7-20-35-20-24 0-35-5-35-15s-11-15-35-15c-28 0-35-4-35-20s-7-20-35-20c-24 0-35-5-35-15 0-8-7-15-15-15s-15-7-15-15c0-10-11-15-35-15-28 0-35-4-35-20 0-13-7-20-20-20-11 0-20-7-20-15s-7-15-15-15-15-9-15-20c0-16-7-20-35-20-24 0-35-5-35-15 0-8-9-15-20-15-13 0-20-7-20-20s-7-20-20-20c-11 0-20-7-20-15 0-10-11-15-35-15-28 0-35-4-35-20 0-19-7-20-105-20s-105 1-105 20c0 11-7 20-15 20s-15 7-15 15-9 15-20 15c-16 0-20 7-20 35 0 24-5 35-15 35-8 0-15 9-15 20s7 20 15 20 15 7 15 15-7 15-15 15c-10 0-15 11-15 35s5 35 15 35c13 0 15 29 15 205 0 198 1 205 20 205s20 7 20 140c0 118 2 140 15 140 12 0 15 14 15 70 0 63 2 70 20 70s20 7 20 70c0 56 3 70 15 70s15 14 15 65c0 58 2 65 20 65s20 7 20 70c0 56 3 70 15 70 10 0 15 11 15 35 0 28 4 35 20 35 17 0 20 7 20 50 0 38 4 50 15 50 10 0 15 11 15 35 0 28 4 35 20 35 18 0 20 7 20 55 0 42 3 55 15 55 10 0 15 11 15 35 0 28 4 35 20 35s20 7 20 30 4 30 20 30 20 7 20 35c0 24 5 35 15 35 8 0 15 9 15 20 0 13 7 20 20 20 16 0 20 7 20 35 0 24 5 35 15 35 8 0 15 7 15 15s9 15 20 15c13 0 20 7 20 20 0 11 7 20 15 20s15 7 15 15 9 15 20 15 20 7 20 15 7 15 15 15 15 9 15 20c0 18 7 20 55 20 42 0 55 3 55 15 0 10 11 15 35 15 28 0 35 4 35 20 0 18 7 20 70 20 56 0 70 3 70 15 0 13 52 15 405 15s405-2 405-15zm-1730-120c0-24-5-35-15-35-8 0-15-7-15-15s-9-15-20-15c-16 0-20-7-20-35 0-24-5-35-15-35s-15-11-15-35c0-28-4-35-20-35s-20-7-20-35c0-24-5-35-15-35s-15-11-15-35c0-28-4-35-20-35-17 0-20-7-20-50s-3-50-20-50c-16 0-20-7-20-35 0-24-5-35-15-35s-15-11-15-35c0-28-4-35-20-35s-20-7-20-35c0-24-5-35-15-35-11 0-15-12-15-50 0-43-3-50-20-50-18 0-20-7-20-55 0-42-3-55-15-55s-15-16-15-85c0-78-2-85-20-85s-20-7-20-85c0-69-3-85-15-85s-15-16-15-85c0-78-2-85-20-85-19 0-20-7-20-90 0-73-3-90-15-90-13 0-15-24-15-155 0-148-1-155-20-155-20 0-20-7-20-360 0-313-2-360-15-360-8 0-15-9-15-20s7-20 15-20c11 0 15-12 15-50s-4-50-15-50c-13 0-15-61-15-485s2-485 15-485 15-60 15-480c0-473 0-480 20-480 19 0 20-7 20-225 0-193 2-225 15-225s15-28 15-190c0-183 1-190 20-190s20-7 20-135c0-113 2-135 15-135s15-24 15-155c0-148 1-155 20-155s20-7 20-140c0-118 2-140 15-140 12 0 15-18 15-105 0-98 1-105 20-105 18 0 20-7 20-70 0-56 3-70 15-70s15-14 15-65c0-58 2-65 20-65s20-7 20-70c0-56 3-70 15-70s15-14 15-70c0-63 2-70 20-70 17 0 20-7 20-50s3-50 20-50c18 0 20-7 20-85 0-69 3-85 15-85s15-14 15-70c0-63 2-70 20-70s20-7 20-55c0-42 3-55 15-55 11 0 15-12 15-50 0-43 3-50 20-50s20-7 20-50c0-38 4-50 15-50 8 0 15-9 15-20 0-13 7-20 20-20 17 0 20-7 20-50v-50h-35c-24 0-35 5-35 15 0 8-9 15-20 15-13 0-20 7-20 20 0 16-7 20-35 20-24 0-35 5-35 15 0 8-7 15-15 15s-15 9-15 20c0 13-7 20-20 20-11 0-20 7-20 15s-9 15-20 15c-13 0-20 7-20 20 0 11-7 20-15 20s-15 7-15 15-9 15-20 15c-16 0-20 7-20 35 0 24-5 35-15 35-8 0-15 7-15 15s-9 15-20 15c-16 0-20 7-20 35 0 24-5 35-15 35s-15 11-15 35c0 28-4 35-20 35s-20 7-20 35c0 24-5 35-15 35s-15 11-15 35c0 28-4 35-20 35-17 0-20 7-20 50 0 38-4 50-15 50-12 0-15 13-15 55 0 48-2 55-20 55s-20 7-20 65c0 51-3 65-15 65s-15 18-15 105c0 98-1 105-20 105-18 0-20 7-20 70 0 56-3 70-15 70s-15 16-15 85c0 78-2 85-20 85s-20 7-20 70-2 70-20 70c-19 0-20 7-20 120 0 100-2 120-15 120-12 0-15 16-15 85 0 78-2 85-20 85-19 0-20 7-20 105 0 87-3 105-15 105s-15 18-15 105c0 98-1 105-20 105-18 0-20 7-20 70 0 56-3 70-15 70-11 0-15 12-15 50 0 43-3 50-20 50-16 0-20 7-20 35 0 24-5 35-15 35-8 0-15 7-15 15s-9 15-20 15c-16 0-20 7-20 35 0 24-5 35-15 35-8 0-15 9-15 20 0 13-7 20-20 20-11 0-20 7-20 15s-7 15-15 15-15 7-15 15c0 10-11 15-35 15-28 0-35 4-35 20 0 18-7 20-55 20-42 0-55 3-55 15 0 13-30 15-210 15s-210-2-210-15c0-12-13-15-55-15-48 0-55-2-55-20 0-13-7-20-20-20-11 0-20-7-20-15 0-10-11-15-35-15s-35-5-35-15c0-8-7-15-15-15s-15-9-15-20c0-13-7-20-20-20-11 0-20-7-20-15s-7-15-15-15-15-9-15-20c0-13-7-20-20-20-16 0-20-7-20-35 0-24-5-35-15-35-8 0-15-7-15-15s-9-15-20-15c-13 0-20-7-20-20 0-11-7-20-15-20-10 0-15-10-15-30 0-23-4-30-20-30-19 0-20-7-20-125s1-125 20-125c18 0 20-7 20-65 0-51 3-65 15-65 10 0 15-11 15-35 0-28 4-35 20-35s20-7 20-35c0-24 5-35 15-35s15-11 15-35c0-28 4-35 20-35s20-7 20-35c0-24 5-35 15-35 8 0 15-7 15-15s9-15 20-15c16 0 20-7 20-35 0-24 5-35 15-35 8 0 15-9 15-20 0-13 7-20 20-20 16 0 20-7 20-35 0-24 5-35 15-35 8 0 15-7 15-15s9-15 20-15c13 0 20-7 20-20 0-11 7-20 15-20s15-7 15-15 9-15 20-15 20-7 20-15 9-15 20-15c16 0 20-7 20-35 0-33 2-35 35-35 28 0 35-4 35-20 0-11 7-20 15-20 10 0 15-11 15-35 0-28 4-35 20-35 11 0 20-7 20-15s7-15 15-15 15-9 15-20c0-13 7-20 20-20 11 0 20-7 20-15s7-15 15-15c10 0 15-11 15-35 0-28 4-35 20-35 11 0 20-7 20-15s7-15 15-15 15-9 15-20c0-13 7-20 20-20 16 0 20-7 20-35 0-24 5-35 15-35 8 0 15-7 15-15s9-15 20-15c16 0 20-7 20-35 0-24 5-35 15-35s15-11 15-35c0-28 4-35 20-35 11 0 20-7 20-15s9-15 20-15c18 0 20-7 20-55 0-42 3-55 15-55 13 0 15-20 15-120s-2-120-15-120c-8 0-15-7-15-15 0-12-13-15-55-15s-55 3-55 15c0 10-11 15-35 15-28 0-35 4-35 20 0 13-7 20-20 20-11 0-20 7-20 15s-7 15-15 15-15 7-15 15-9 15-20 15c-13 0-20 7-20 20 0 11-7 20-15 20s-15 7-15 15-9 15-20 15c-13 0-20 7-20 20 0 11-7 20-15 20s-15 7-15 15-9 15-20 15c-13 0-20 7-20 20 0 11-7 20-15 20s-15 7-15 15-9 15-20 15c-13 0-20 7-20 20 0 11-7 20-15 20s-15 7-15 15-9 15-20 15-20 7-20 15-9 15-20 15c-13 0-20 7-20 20 0 11-7 20-15 20s-15 7-15 15-9 15-20 15c-13 0-20 7-20 20 0 11-7 20-15 20-10 0-15 11-15 35 0 28-4 35-20 35-11 0-20 7-20 15s-7 15-15 15-15 9-15 20c0 13-7 20-20 20-11 0-20 7-20 15s-7 15-15 15-15 7-15 15-9 15-20 15c-13 0-20 7-20 20 0 11-7 20-15 20s-15 7-15 15-9 15-20 15c-16 0-20 7-20 35 0 24-5 35-15 35-8 0-15 9-15 20 0 13-7 20-20 20-11 0-20 7-20 15s-7 15-15 15c-10 0-15 11-15 35 0 28-4 35-20 35-13 0-20 7-20 20s-7 20-20 20c-16 0-20 7-20 30 0 20-5 30-15 30s-15 11-15 35c0 28-4 35-20 35-13 0-20 7-20 20 0 11-7 20-15 20s-15 7-15 15-9 15-20 15c-16 0-20 7-20 35 0 24-5 35-15 35s-15 11-15 35c0 28-4 35-20 35s-20 7-20 35c0 24-5 35-15 35s-15 11-15 35c0 28-4 35-20 35-17 0-20 7-20 50 0 38-4 50-15 50-10 0-15 11-15 35 0 28-4 35-20 35s-20 7-20 35c0 24-5 35-15 35s-15 11-15 35c0 28-4 35-20 35s-20 7-20 35c0 24-5 35-15 35-11 0-15 12-15 50 0 43-3 50-20 50-13 0-20 7-20 20s-7 20-20 20c-17 0-20 7-20 50 0 38-4 50-15 50-12 0-15 14-15 70 0 63-2 70-20 70-19 0-20 7-20 135 0 113-2 135-15 135-12 0-15 18-15 105 0 98-1 105-20 105-18 0-20 7-20 85 0 69-3 85-15 85s-15 16-15 85c0 78-2 85-20 85-20 0-20 7-20 280s0 280 20 280c19 0 20 7 20 170 0 144 2 170 15 170 12 0 15 18 15 105 0 98 1 105 20 105 18 0 20 7 20 70 0 56 3 70 15 70s15 16 15 85c0 78 2 85 20 85 17 0 20 7 20 50 0 38 4 50 15 50s15 12 15 50c0 43 3 50 20 50 18 0 20 7 20 55s2 55 20 55c16 0 20 7 20 35 0 24 5 35 15 35 11 0 15 12 15 50 0 43 3 50 20 50s20 7 20 50c0 38 4 50 15 50 10 0 15 11 15 35 0 28 4 35 20 35s20 7 20 35c0 24 5 35 15 35s15 11 15 35c0 28 4 35 20 35s20 7 20 35c0 24 5 35 15 35s15 11 15 35c0 28 4 35 20 35s20 7 20 35c0 24 5 35 15 35s15 11 15 35c0 28 4 35 20 35 11 0 20 7 20 15s7 15 15 15c10 0 15 11 15 35 0 28 4 35 20 35 11 0 20 7 20 15s7 15 15 15c10 0 15 11 15 35 0 28 4 35 20 35s20 7 20 35 4 35 20 35c13 0 20 7 20 20 0 11 7 20 15 20 10 0 15 11 15 35 0 28 4 35 20 35s20 7 20 35c0 24 5 35 15 35 8 0 15 7 15 15s9 15 20 15c16 0 20 7 20 35 0 24 5 35 15 35 8 0 15 7 15 15s9 15 20 15c16 0 20 7 20 35 0 24 5 35 15 35 8 0 15 9 15 20 0 13 7 20 20 20 11 0 20 7 20 15s7 15 15 15 15 9 15 20c0 13 7 20 20 20 11 0 20 7 20 15s7 15 15 15 15 7 15 15 9 15 20 15c13 0 20 7 20 20 0 11 7 20 15 20s15 7 15 15 9 15 20 15c13 0 20 7 20 20s7 20 20 20c11 0 20 7 20 15s7 15 15 15 15 9 15 20c0 13 7 20 20 20 11 0 20 7 20 15 0 10 11 15 35 15 28 0 35 4 35 20s7 20 35 20c24 0 35 5 35 15 0 8 7 15 15 15s15 7 15 15 9 15 20 15c13 0 20 7 20 20 0 11 7 20 15 20s15 7 15 15c0 10 11 15 35 15 28 0 35 4 35 20 0 13 7 20 20 20 11 0 20 7 20 15 0 10 11 15 35 15 28 0 35 4 35 20 0 13 7 20 20 20 11 0 20 7 20 15 0 10 11 15 35 15 28 0 35 4 35 20 0 11 7 20 15 20s15 7 15 15c0 10 11 15 35 15 28 0 35 4 35 20s7 20 35 20c24 0 35 5 35 15s11 15 35 15 35 5 35 15 11 15 35 15c28 0 35 4 35 20s7 20 35 20c24 0 35 5 35 15 0 11 11 15 40 15 33 0 40 3 40 20s7 20 50 20c38 0 50 4 50 15 0 10 11 15 35 15 28 0 35 4 35 20s7 20 35 20c24 0 35 5 35 15 0 12 13 15 55 15 48 0 55 2 55 20 0 16 7 20 35 20 24 0 35 5 35 15s11 15 35 15 35 5 35 15c0 12 13 15 55 15 48 0 55 2 55 20 0 17 7 20 50 20h50v-35zm3680-3360c0-13 22-15 140-15 133 0 140-1 140-20s7-20 90-20c73 0 90-3 90-15s16-15 85-15c78 0 85-2 85-20s7-20 70-20c56 0 70-3 70-15s13-15 55-15c48 0 55-2 55-20s7-20 55-20c42 0 55-3 55-15 0-10 11-15 35-15 28 0 35-4 35-20 0-17 7-20 50-20 38 0 50-4 50-15 0-10 11-15 35-15 28 0 35-4 35-20s7-20 35-20c24 0 35-5 35-15 0-11 11-15 40-15s40-4 40-15c0-8 7-15 15-15s15-9 15-20c0-13 7-20 20-20 11 0 20-7 20-15s7-15 15-15 15-9 15-20c0-13 7-20 20-20 16 0 20-7 20-35 0-24 5-35 15-35 12 0 15-14 15-65 0-58 2-65 20-65 19 0 20-7 20-90s-1-90-20-90c-16 0-20-7-20-35 0-24-5-35-15-35-8 0-15-7-15-15s-9-15-20-15-20-7-20-15-7-15-15-15-15 7-15 15c0 12-13 15-55 15s-55 3-55 15c0 10-11 15-35 15-28 0-35 4-35 20s-7 20-35 20c-24 0-35 5-35 15 0 12-13 15-55 15-48 0-55 2-55 20 0 17-7 20-50 20-38 0-50 4-50 15 0 12-13 15-55 15-48 0-55 2-55 20 0 19-7 20-90 20-73 0-90 3-90 15s-18 15-105 15c-98 0-105 1-105 20 0 18-7 20-70 20-56 0-70 3-70 15 0 13-26 15-175 15s-175 2-175 15c0 12-14 15-70 15-63 0-70 2-70 20 0 20-7 20-460 20s-460 0-460-20c0-19-7-20-160-20-136 0-160-2-160-15 0-12-18-15-105-15s-105-3-105-15c0-13-21-15-125-15-118 0-125-1-125-20 0-16-7-20-35-20-24 0-35-5-35-15 0-12-14-15-70-15-63 0-70-2-70-20 0-16-7-20-35-20-24 0-35-5-35-15s-11-15-35-15c-28 0-35-4-35-20 0-18-7-20-55-20-42 0-55-3-55-15s-13-15-55-15c-48 0-55-2-55-20 0-11-7-20-15-20s-15-7-15-15c0-10-11-15-35-15s-35-5-35-15c0-8-9-15-20-15-13 0-20-7-20-20 0-16-7-20-35-20-24 0-35-5-35-15 0-8-7-15-15-15s-15-9-15-20c0-13-7-20-20-20-11 0-20-7-20-15 0-10-11-15-35-15-28 0-35-4-35-20 0-11-7-20-15-20s-15-7-15-15-9-15-20-15c-13 0-20-7-20-20s-7-20-20-20c-11 0-20-7-20-15s-7-15-15-15-15-9-15-20c0-13-7-20-20-20-11 0-20-7-20-15s-7-15-15-15-15-7-15-15-9-15-20-15c-16 0-20-7-20-35 0-24-5-35-15-35-8 0-15-9-15-20 0-13-7-20-20-20-16 0-20-7-20-35 0-24-5-35-15-35-11 0-15-12-15-50 0-43-3-50-20-50-16 0-20-7-20-35 0-24-5-35-15-35-12 0-15-14-15-70 0-63-2-70-20-70-20 0-20-7-20-465s0-465 20-465c19 0 20-7 20-190 0-162 2-190 15-190 12 0 15-14 15-70 0-63 2-70 20-70s20-7 20-85c0-69 3-85 15-85 11 0 15-12 15-50 0-43 3-50 20-50s20-7 20-50c0-38 4-50 15-50 12 0 15-13 15-55 0-48 2-55 20-55 16 0 20-7 20-35 0-24 5-35 15-35s15-11 15-35c0-28 4-35 20-35s20-7 20-30c0-20 5-30 15-30 8 0 15-9 15-20 0-13 7-20 20-20 11 0 20-7 20-15s9-15 20-15c13 0 20-7 20-20 0-11 7-20 15-20s15-7 15-15c0-10 11-15 35-15 28 0 35-4 35-20 0-19 7-20 160-20s160 1 160 20 7 20 160 20c136 0 160 2 160 15 0 12 16 15 85 15 78 0 85 2 85 20 0 19 7 20 90 20 73 0 90 3 90 15s13 15 55 15c48 0 55 2 55 20 0 17 7 20 50 20 38 0 50 4 50 15 0 12 13 15 55 15s55 3 55 15 13 15 55 15c48 0 55 2 55 20 0 17 7 20 50 20 38 0 50 4 50 15 0 10 11 15 35 15 28 0 35 4 35 20s7 20 35 20c24 0 35 5 35 15s11 15 35 15c28 0 35 4 35 20s7 20 35 20c24 0 35 5 35 15 0 8 9 15 20 15 13 0 20 7 20 20 0 16 7 20 35 20 24 0 35 5 35 15s11 15 35 15 35 5 35 15c0 8 9 15 20 15 13 0 20 7 20 20 0 16 7 20 35 20 24 0 35 5 35 15 0 8 7 15 15 15s15 9 15 20c0 16 7 20 35 20 24 0 35 5 35 15 0 8 9 15 20 15 13 0 20 7 20 20 0 11 7 20 15 20s15 7 15 15 9 15 20 15c13 0 20 7 20 20 0 16 7 20 35 20 24 0 35 5 35 15 0 8 7 15 15 15s15 7 15 15 9 15 20 15c13 0 20 7 20 20s7 20 20 20c11 0 20 7 20 15s7 15 15 15 15 9 15 20c0 13 7 20 20 20 16 0 20 7 20 35 0 24 5 35 15 35 8 0 15 7 15 15s9 15 20 15c13 0 20 7 20 20 0 11 7 20 15 20s15 7 15 15 9 15 20 15c13 0 20 7 20 20 0 11 7 20 15 20s15 7 15 15 9 15 20 15 20 7 20 15 7 15 15 15c10 0 15 11 15 35 0 28 4 35 20 35 13 0 20 7 20 20 0 11 7 20 15 20 10 0 15 11 15 35 0 28 4 35 20 35s20 7 20 35c0 24 5 35 15 35 11 0 15 12 15 50 0 43 3 50 20 50 16 0 20 7 20 35s4 35 20 35c17 0 20 7 20 50 0 38 4 50 15 50s15 12 15 50c0 43 3 50 20 50 19 0 20 7 20 140s-1 140-20 140c-13 0-20 7-20 20 0 11-7 20-15 20s-15 7-15 15c0 11-11 15-40 15s-40 4-40 15c0 13-22 15-140 15-133 0-140 1-140 20s-7 20-195 20-195-1-195-20-7-20-245-20c-211 0-245-2-245-15s-24-15-160-15-160-2-160-15c0-12-14-15-70-15-63 0-70-2-70-20 0-19-7-20-105-20-87 0-105-3-105-15s-14-15-70-15c-63 0-70-2-70-20s-7-20-75-20c-60 0-75-3-75-15 0-8-7-15-15-15s-15 7-15 15-9 15-20 15c-18 0-20 7-20 70s2 70 20 70c17 0 20 7 20 50 0 38 4 50 15 50 10 0 15 11 15 35 0 28 4 35 20 35 18 0 20 7 20 55s2 55 20 55c16 0 20 7 20 30 0 20 5 30 15 30 8 0 15 9 15 20 0 13 7 20 20 20 16 0 20 7 20 35 0 24 5 35 15 35 8 0 15 7 15 15s9 15 20 15c13 0 20 7 20 20 0 11 7 20 15 20s15 7 15 15c0 10 11 15 35 15 28 0 35 4 35 20 0 13 7 20 20 20 11 0 20 7 20 15 0 10 11 15 35 15s35 5 35 15c0 11 12 15 50 15 43 0 50 3 50 20s7 20 40 20c29 0 40 4 40 15s12 15 50 15c43 0 50 3 50 20 0 16 7 20 35 20 24 0 35 5 35 15 0 12 13 15 55 15 48 0 55 2 55 20 0 19 7 20 125 20 104 0 125 2 125 15s44 15 335 15 335-2 335-15 24-15 155-15c148 0 155-1 155-20s7-20 125-20c104 0 125-2 125-15 0-12 17-15 90-15 83 0 90-1 90-20 0-18 7-20 70-20 56 0 70-3 70-15s14-15 70-15c63 0 70-2 70-20s7-20 55-20c42 0 55-3 55-15 0-10 11-15 35-15s35-5 35-15 11-15 35-15c28 0 35-4 35-20s7-20 35-20c24 0 35-5 35-15 0-8 7-15 15-15s15-9 15-20c0-17 7-20 40-20 29 0 40-4 40-15 0-8 7-15 15-15s15-9 15-20c0-13 7-20 20-20 19 0 20-7 20-120s-1-120-20-120c-18 0-20-7-20-85 0-69-3-85-15-85s-15-14-15-70c0-63-2-70-20-70-17 0-20-7-20-50s-3-50-20-50c-16 0-20-7-20-35 0-24-5-35-15-35s-15-11-15-35c0-28-4-35-20-35-17 0-20-7-20-50 0-38-4-50-15-50-10 0-15-11-15-35 0-28-4-35-20-35s-20-7-20-35c0-24-5-35-15-35s-15-11-15-35c0-28-4-35-20-35s-20-7-20-35c0-24-5-35-15-35-8 0-15-7-15-15s-9-15-20-15c-16 0-20-7-20-35 0-24-5-35-15-35-8 0-15-9-15-20 0-13-7-20-20-20-16 0-20-7-20-35 0-24-5-35-15-35s-15-10-15-30c0-23-4-30-20-30-13 0-20-7-20-20 0-11-7-20-15-20s-15-7-15-15-9-15-20-15c-16 0-20-7-20-35s-4-35-20-35c-13 0-20-7-20-20 0-11-7-20-15-20-10 0-15-11-15-35 0-28-4-35-20-35-11 0-20-7-20-15s-7-15-15-15c-10 0-15-11-15-35 0-28-4-35-20-35-11 0-20-7-20-15s-7-15-15-15-15-9-15-20c0-13-7-20-20-20-11 0-20-7-20-15s-7-15-15-15-15-9-15-20c0-13-7-20-20-20-11 0-20-7-20-15s-7-15-15-15-15-9-15-20c0-13-7-20-20-20-11 0-20-7-20-15s-7-15-15-15-15-9-15-20c0-13-7-20-20-20-11 0-20-7-20-15s-7-15-15-15-15-7-15-15-9-15-20-15c-13 0-20-7-20-20s-7-20-20-20c-11 0-20-7-20-15s-7-15-15-15-15-9-15-20c0-13-7-20-20-20-11 0-20-7-20-15s-7-15-15-15-15-9-15-20c0-13-7-20-20-20-11 0-20-7-20-15s-7-15-15-15-15-9-15-20c0-13-7-20-20-20-11 0-20-7-20-15s-7-15-15-15-15-7-15-15-9-15-20-15c-13 0-20-7-20-20 0-16-7-20-35-20-24 0-35-5-35-15 0-8-7-15-15-15s-15-9-15-20c0-16-7-20-35-20-24 0-35-5-35-15 0-8-9-15-20-15-13 0-20-7-20-20 0-16-7-20-35-20-24 0-35-5-35-15 0-8-9-15-20-15-13 0-20-7-20-20 0-16-7-20-35-20-24 0-35-5-35-15 0-8-7-15-15-15s-15-9-15-20c0-16-7-20-35-20-24 0-35-5-35-15s-11-15-35-15-35-5-35-15-11-15-35-15c-28 0-35-4-35-20 0-18-7-20-55-20-42 0-55-3-55-15s-13-15-55-15c-48 0-55-2-55-20 0-16-7-20-35-20-24 0-35-5-35-15s-11-15-35-15c-28 0-35-4-35-20s-7-20-35-20c-24 0-35-5-35-15 0-11-12-15-50-15-43 0-50-3-50-20 0-16-7-20-35-20-24 0-35-5-35-15 0-12-15-15-75-15s-75-3-75-15-14-15-70-15c-63 0-70-2-70-20s-7-20-70-20c-56 0-70-3-70-15s-17-15-90-15c-83 0-90-1-90-20s-7-20-210-20c-180 0-210-2-210-15s-38-15-285-15-285 2-285 15c0 12-14 15-70 15-63 0-70 2-70 20 0 17-7 20-50 20-38 0-50 4-50 15 0 10-11 15-35 15-28 0-35 4-35 20s-7 20-35 20c-24 0-35 5-35 15 0 8-9 15-20 15-16 0-20 7-20 35 0 24-5 35-15 35-8 0-15 7-15 15s-9 15-20 15c-16 0-20 7-20 35s-4 35-20 35-20 7-20 35c0 24-5 35-15 35-11 0-15 12-15 50 0 43-3 50-20 50-16 0-20 7-20 35 0 24-5 35-15 35-12 0-15 14-15 70 0 63-2 70-20 70s-20 7-20 70c0 56-3 70-15 70s-15 14-15 70c0 63-2 70-20 70s-20 7-20 70c0 56-3 70-15 70s-15 16-15 85c0 78-2 85-20 85s-20 7-20 85c0 69-3 85-15 85s-15 16-15 85c0 78-2 85-20 85-19 0-20 7-20 90 0 73-3 90-15 90-13 0-15 22-15 135 0 128-1 135-20 135s-20 7-20 140c0 118-2 140-15 140s-15 28-15 190c0 183-1 190-20 190-20 0-20 7-20 275s0 275 20 275c18 0 20 7 20 85 0 69 3 85 15 85 11 0 15 12 15 50 0 43 3 50 20 50 16 0 20 7 20 35 0 24 5 35 15 35s15 11 15 35c0 28 4 35 20 35 13 0 20 7 20 20 0 11 7 20 15 20s15 7 15 15 9 15 20 15c13 0 20 7 20 20 0 11 7 20 15 20s15 7 15 15 9 15 20 15 20 7 20 15 7 15 15 15 15 9 15 20c0 13 7 20 20 20 11 0 20 7 20 15 0 10 11 15 35 15 28 0 35 4 35 20 0 11 7 20 15 20s15 7 15 15c0 11 11 15 40 15 33 0 40 3 40 20 0 16 7 20 35 20 24 0 35 5 35 15 0 8 7 15 15 15s15 9 15 20c0 13 7 20 20 20 11 0 20 7 20 15 0 10 11 15 35 15s35 5 35 15 11 15 35 15c28 0 35 4 35 20s7 20 35 20c24 0 35 5 35 15 0 8 7 15 15 15s15 9 15 20c0 16 7 20 35 20 24 0 35 5 35 15 0 12 13 15 55 15 48 0 55 2 55 20 0 13 7 20 20 20 11 0 20 7 20 15s7 15 15 15 15 9 15 20c0 18 7 20 55 20 42 0 55 3 55 15 0 10 11 15 35 15s35 5 35 15c0 11 12 15 50 15 43 0 50 3 50 20s7 20 40 20c29 0 40 4 40 15s12 15 50 15c43 0 50 3 50 20 0 16 7 20 35 20 24 0 35 5 35 15 0 12 13 15 55 15 48 0 55 2 55 20 0 16 7 20 35 20 24 0 35 5 35 15 0 12 14 15 70 15 63 0 70 2 70 20s7 20 55 20c42 0 55 3 55 15 0 13 22 15 140 15 133 0 140 1 140 20s7 20 265 20c229 0 265 2 265 15s58 15 460 15 460-2 460-15z"/>
<path d="m2790 8050c0-18-7-20-70-20-56 0-70-3-70-15 0-8-9-15-20-15s-20-7-20-15c0-10-11-15-35-15-28 0-35-4-35-20s-7-20-35-20c-24 0-35-5-35-15s-11-15-35-15c-28 0-35-4-35-20 0-11-7-20-15-20s-15-7-15-15-9-15-20-15c-13 0-20-7-20-20 0-11-7-20-15-20s-15-7-15-15-9-15-20-15c-13 0-20-7-20-20 0-11-7-20-15-20s-15-7-15-15-9-15-20-15-20-7-20-15-7-15-15-15-15-9-15-20c0-13-7-20-20-20-11 0-20-7-20-15s-9-15-20-15c-13 0-20-7-20-20 0-11-7-20-15-20s-15-7-15-15-9-15-20-15c-13 0-20-7-20-20 0-11-7-20-15-20-10 0-15-11-15-35 0-28-4-35-20-35s-20-7-20-35c0-24-5-35-15-35s-15-10-15-30c0-23-4-30-20-30s-20-7-20-35c0-24-5-35-15-35s-15-11-15-35c0-28-4-35-20-35s-20-7-20-35c0-24-5-35-15-35-8 0-15-9-15-20 0-13-7-20-20-20-16 0-20-7-20-30 0-20-5-30-15-30s-15-11-15-35c0-28-4-35-20-35-18 0-20-7-20-55 0-42-3-55-15-55-11 0-15-12-15-50 0-43-3-50-20-50-18 0-20-7-20-70s-2-70-20-70-20-7-20-85c0-69-3-85-15-85s-15-14-15-70c0-63-2-70-20-70s-20-7-20-70c0-56-3-70-15-70s-15-18-15-100c0-93-1-100-20-100s-20-7-20-175c0-149-2-175-15-175s-15-53-15-415 2-415 15-415c11 0 15-12 15-50 0-43 3-50 20-50 11 0 20-7 20-15s7-15 15-15 15-9 15-20c0-13 7-20 20-20 11 0 20-7 20-15 0-13 26-15 175-15s175 2 175 15c0 12 14 15 70 15 63 0 70 2 70 20s7 20 55 20c42 0 55 3 55 15s14 15 70 15c63 0 70 2 70 20s7 20 55 20c42 0 55 3 55 15 0 10 11 15 35 15s35 5 35 15 11 15 35 15c28 0 35 4 35 20s7 20 35 20c24 0 35 5 35 15s11 15 35 15c28 0 35 4 35 20 0 13 7 20 20 20 11 0 20 7 20 15s7 15 15 15 15 9 15 20c0 13 7 20 20 20 16 0 20 7 20 35 0 24 5 35 15 35 12 0 15 16 15 85 0 78 2 85 20 85 20 0 20 7 20 585 0 513 2 585 15 585s15 20 15 120c0 113 1 120 20 120s20 7 20 175c0 149 2 175 15 175 12 0 15 18 15 100 0 93 1 100 20 100 18 0 20 7 20 70 0 56 3 70 15 70s15 16 15 85c0 78 2 85 20 85s20 7 20 70c0 56 3 70 15 70 13 0 15 28 15 190s-2 190-15 190c-10 0-15 11-15 35 0 28-4 35-20 35-11 0-20 7-20 15 0 10-11 15-35 15-28 0-35 4-35 20 0 18-7 20-70 20s-70-2-70-20z"/>
</g>
</svg>